<svg height="448pt" viewBox="0 -23 448.71031 448" width="448pt" xmlns="http://www.w3.org/2000/svg"><path d="m340.84375 402.371094h-233c-19.507812.003906-35.804688-14.855469-37.597656-34.28125l-27.296875-296.175782h362.800781l-27.304688 296.175782c-1.792968 19.425781-18.089843 34.285156-37.601562 34.28125zm0 0" fill="#f9ad6a"/><path d="m104.554688 71.914062v137.851563c0 12.566406 10.1875 22.753906 22.753906 22.753906 12.570312 0 22.757812-10.1875 22.757812-22.753906v-83.402344c0-12.566406 10.1875-22.753906 22.753906-22.753906 12.570313 0 22.757813 10.1875 22.757813 22.753906v31.632813c0 12.566406 10.1875 22.757812 22.753906 22.757812 12.570313 0 22.757813-10.191406 22.757813-22.757812v-86.082032zm0 0" fill="#ea8c46"/><path d="m41.207031 26.464844h366.277344c12.550781 0 22.726563 10.171875 22.726563 22.722656s-10.175782 22.726562-22.726563 22.726562h-366.277344c-12.550781 0-22.726562-10.175781-22.726562-22.726562s10.175781-22.722656 22.726562-22.722656zm0 0" fill="#d36c4f"/><path d="m368.410156 71.914062-27.304687 296.175782c-1.789063 19.425781-18.089844 34.289062-37.601563 34.28125h37.332032c19.511718.007812 35.8125-14.855469 37.601562-34.28125l27.304688-296.175782zm0 0" fill="#ea8c46"/><path d="m407.484375 26.464844h-37.332031c12.550781 0 22.726562 10.171875 22.726562 22.722656s-10.175781 22.726562-22.726562 22.726562h37.332031c12.550781 0 22.726563-10.175781 22.726563-22.726562s-10.175782-22.722656-22.726563-22.722656zm0 0" fill="#c1573e"/><path d="m104.554688 26.464844h136.535156v45.449218h-136.535156zm0 0" fill="#c1573e"/><path d="m320.457031 294.097656h-192.222656c-66.53125.003906-121.433594-52.050781-124.964844-118.484375l-3.1992185-43.15625c-.6718745-11.796875 3.5429685-23.351562 11.6562495-31.941406 8.113282-8.589844 19.40625-13.460937 31.222657-13.464844v14c-7.949219.003907-15.550781 3.269531-21.023438 9.039063-5.46875 5.769531-8.328125 13.535156-7.90625 21.476562l3.203125 43.152344c3.082032 59.0625 51.867188 105.375 111.011719 105.378906h192.222656c59.085938 0 107.839844-46.230468 110.984375-105.230468l3.234375-43.449219c.382813-7.917969-2.496093-15.644531-7.964843-21.378907-5.464844-5.738281-13.042969-8.984374-20.96875-8.988281h-2.039063v-14h2.039063c11.792968 0 23.066406 4.847657 31.179687 13.402344 8.117187 8.558594 12.355469 20.074219 11.726563 31.851563l-3.234376 43.460937c-3.59375 66.378906-58.480468 118.355469-124.957031 118.332031zm0 0" fill="#17293d"/><path d="m184.621094 269.007812h79.449218c9.988282 0 18.082032 8.097657 18.082032 18.085938 0 9.984375-8.09375 18.082031-18.082032 18.082031h-79.449218c-9.988282 0-18.082032-8.097656-18.082032-18.082031 0-9.988281 8.09375-18.085938 18.082032-18.085938zm0 0" fill="#274d59"/><path d="m264.070312 269.007812h-18.3125c9.988282 0 18.082032 8.097657 18.082032 18.085938 0 9.984375-8.09375 18.082031-18.082032 18.082031h18.3125c9.988282 0 18.082032-8.097656 18.082032-18.082031 0-9.988281-8.09375-18.085938-18.082032-18.085938zm0 0" fill="#1b3c44"/><path d="m297.386719 26.464844c-.476563-14.660156-12.574219-26.257813-27.242188-26.109375h-167.398437c-14.417969 0-26.109375 11.691406-26.109375 26.109375h11.726562v183.300781c0 12.566406 10.1875 22.753906 22.753907 22.753906 12.570312.003907 22.761718-10.1875 22.761718-22.753906v-83.402344c0-12.566406 10.1875-22.753906 22.753906-22.753906 12.566407 0 22.757813 10.1875 22.757813 22.753906v31.632813c0 12.566406 10.1875 22.757812 22.753906 22.757812 12.570313 0 22.757813-10.191406 22.757813-22.757812v-131.53125zm0 0" fill="#fff471"/><g fill="#f7cb4f"><path d="m139.816406 103.609375c-12.566406 0-22.753906 10.1875-22.753906 22.753906v83.402344c-.003906 9.316406-5.691406 17.691406-14.347656 21.132813 2.671875 1.066406 5.519531 1.617187 8.398437 1.621093 12.570313.003907 22.765625-10.183593 22.765625-22.753906v-83.402344c0-9.316406 5.6875-17.691406 14.347656-21.128906-2.675781-1.074219-5.527343-1.625-8.410156-1.625zm0 0"/><path d="m270.140625.355469h-16.800781c14.667968-.148438 26.769531 11.449219 27.242187 26.109375h16.800781c-.476562-14.660156-12.574218-26.257813-27.242187-26.109375zm0 0"/><path d="m208.085938 157.992188c-.003907 9.316406-5.6875 17.691406-14.347657 21.132812 7.003907 2.800781 14.945313 1.941406 21.191407-2.292969 6.246093-4.234375 9.980468-11.292969 9.972656-18.839843v-131.527344h-16.800782zm0 0"/></g><path d="m109.167969 352.097656h57.371093v20.917969h-57.371093zm0 0" fill="#fff471"/><path d="m132.632812 321.269531c0 6.476563-5.253906 11.730469-11.730468 11.730469-6.480469 0-11.734375-5.253906-11.734375-11.730469 0-6.480469 5.253906-11.734375 11.734375-11.734375 6.476562 0 11.730468 5.253906 11.730468 11.734375zm0 0" fill="#17293d"/></svg>