<svg id="flat" height="512" viewBox="0 0 512 512" width="512" xmlns="http://www.w3.org/2000/svg"><path d="m459.862 187.38-87.724-87.725a39.793 39.793 0 0 0 -56.276 0l-131.862 131.862-74.68 78.814c-29.134 30.591-7.45 81.186 34.794 81.186h167.886l16-16 131.862-131.862a39.792 39.792 0 0 0 0-56.275z" fill="#d1d8db"/><path d="m459.862 187.38-87.724-87.725a39.793 39.793 0 0 0 -56.276 0l-11.685 11.685a40.118 40.118 0 0 1 4.443 3.832l87.725 87.728a39.792 39.792 0 0 1 0 56.275l-131.862 131.86-.483.482h48l16-16 131.862-131.862a39.792 39.792 0 0 0 0-56.275z" fill="#dceaef"/><path d="m234.461 149.694h147.078v203.647h-147.078z" fill="#e2a23b" transform="matrix(.707 -.707 .707 .707 -87.639 291.457)"/><path d="m404.387 243.905-100.645 107.355 24.258 24.257 104-104z" fill="#ba763e"/><path d="m311.431 279.517h113.137v16h-113.137z" fill="#a5662d" transform="matrix(.707 -.707 .707 .707 -95.523 344.407)"/><path d="m429.657 237.175-11.314-11.315 10.344-10.343-10.344-10.342 11.314-11.315 16 16a8 8 0 0 1 0 11.315z" fill="#74a2b7"/><path d="m176 279.517h16v16h-16z" fill="#b9bec1"/><path d="m160 295.517h16v16h-16z" fill="#b9bec1"/><path d="m16 415.517h480v16h-480z" fill="#2e4859"/><g fill="#48687a"><path d="m72 383.517h16v16h-16z"/><path d="m44 354.547h16v33.941h-16z" transform="matrix(.707 -.707 .707 .707 -247.472 145.584)"/><path d="m472 399.517h-48a8 8 0 0 1 -5.657-2.342l-10.343-10.344-10.343 10.344a8 8 0 0 1 -11.314 0l-10.343-10.344-10.343 10.344-11.314-11.315 16-16a8 8 0 0 1 11.314 0l10.343 10.34 10.343-10.344a8 8 0 0 1 11.314 0l13.657 13.657h44.686z"/></g></svg>