<svg id="Capa_1" enable-background="new 0 0 511.999 511.999" height="512" viewBox="0 0 511.999 511.999" width="512" xmlns="http://www.w3.org/2000/svg"><g><path d="m231.689 300.35-6.815 1.569-24.374-8.919-2.091-4.828 12.178-33.28 5.273-1.856 24.952 9.131 3.055 4.903z" fill="#d9ecfd"/><path d="m186.169 291.147-26.839 73.345c-7.103-5.696-15.259-10.332-24.351-13.53-42.23-14.856-89.205 7.018-105.003 48.905-16.163 42.853 5.482 90.524 48.076 106.704 43.331 16.459 91.724-6.55 107.653-50.079l53.414-145.969c1.329-3.631-.538-7.651-4.168-8.979l-39.802-14.565c-3.632-1.329-7.652.537-8.98 4.168zm-37.31 153.113c-8.36 22.846-33.657 34.589-56.503 26.229s-34.589-33.657-26.229-56.503 33.657-34.589 56.503-26.229 34.589 33.657 26.229 56.503z" fill="#fc5a36"/><path d="m109.952 506.93c-42.967-15.725-65.054-63.301-49.329-106.279 10.394-28.377 34.667-47.649 62.342-52.928-39.173-7.507-79.129 14.261-93.276 52.928-15.725 42.978 6.362 90.554 49.329 106.279 14.601 5.341 29.738 6.321 43.967 3.599-4.361-.825-8.723-2.021-13.033-3.599zm76.218-215.78-26.84 73.342c9.315 8.701 17.976 20.571 19.522 32.107l37.007-102.041-20.711-7.577c-3.629-1.327-7.649.539-8.978 4.169z" fill="#db3915"/><path d="m280.31 300.35 6.69 1.569 23.932-8.757 2.658-4.99-12.178-33.28-5.333-1.856-24.579 8.994-3.368 5.04z" fill="#c5e2ff"/><path d="m292.653 0c29.243 10.701 44.275 43.082 33.574 72.325l-70.121 191.767c-1.328 3.631-5.349 5.499-8.98 4.17l-39.802-14.565c-3.63-1.328-5.496-5.348-4.169-8.978z" fill="#c5e2ff"/><path d="m482.023 399.867c-15.798-41.887-62.773-63.761-105.003-48.905-9.092 3.198-17.248 7.834-24.351 13.53l-26.839-73.345c-1.329-3.631-5.349-5.497-8.979-4.168l-39.802 14.565c-3.631 1.328-5.497 5.349-4.168 8.979l53.414 145.969c15.855 43.328 64.521 66.462 107.652 50.079 42.594-16.18 64.238-63.851 48.076-106.704zm-62.38 70.623c-22.846 8.36-48.143-3.383-56.503-26.229s3.383-48.143 26.229-56.503 48.143 3.383 56.503 26.229c8.361 22.846-3.383 48.143-26.229 56.503z" fill="#fc5a36"/><path d="m357.63 457.591-53.812-147.066c-1.328-3.63.538-7.65 4.168-8.979l19.092-6.988-1.246-3.406c-1.328-3.631-5.349-5.498-8.98-4.17l-39.8 14.564c-3.631 1.328-5.497 5.349-4.168 8.979l53.812 147.065c14.147 38.667 54.093 60.424 93.256 52.938-27.666-5.289-51.939-24.561-62.322-52.937z" fill="#db3915"/><path d="m219.346 0c-29.243 10.701-44.275 43.082-33.574 72.325l70.121 191.767c1.328 3.631 5.349 5.499 8.98 4.17l39.802-14.565c3.63-1.328 5.496-5.348 4.169-8.978z" fill="#d9ecfd"/><g><g><path d="m260.524 201.688c-4.142 0-7.5-3.358-7.5-7.5 0-4.142 3.358-7.5 7.5-7.5 4.142 0 7.5 3.358 7.5 7.5 0 4.142-3.357 7.5-7.5 7.5z" fill="#c5e2ff"/></g></g></g></svg>