<svg id="Capa_1" enable-background="new 0 0 512 512" height="512" viewBox="0 0 512 512" width="512" xmlns="http://www.w3.org/2000/svg"><g><g><g><path d="m467.401 126.281c-3.343.901-6.99.722-10.41-.743-70.568-30.2-138.602-31.198-184.43-26.337-25.75 2.732-47.421 7.538-63.003 11.802-8.116 2.221-16.522-2.394-19.009-10.433-.031-.1-.062-.201-.093-.301-2.604-8.429 2.283-17.338 10.792-19.667 16.702-4.572 39.576-9.625 66.838-12.584 49.953-5.424 124.223-4.464 201.487 28.666 8.197 3.516 11.763 13.221 7.893 21.266-2.057 4.27-5.81 7.185-10.065 8.331z" fill="#5cceff"/></g></g><g><g><path d="m327.559 81.277c0-8.704-7.067-15.79-15.772-15.742-15.971.087-30.664 1.067-43.701 2.483-27.272 2.961-50.152 8.016-66.856 12.589-8.499 2.327-13.371 11.242-10.773 19.663.031.1.062.2.093.301 2.5 8.05 10.942 12.639 19.073 10.416 15.577-4.259 37.224-9.056 62.939-11.784 11.773-1.249 25.014-2.108 39.387-2.187 8.64-.048 15.61-7.098 15.61-15.739z" fill="#27b2ff"/><path d="m432.153 82.96c-11.276-3.475-22.408-6.332-33.326-8.652-9.804-2.084-19.041 5.368-19.041 15.39 0 7.454 5.235 13.85 12.526 15.401 10.032 2.133 20.257 4.758 30.611 7.951 10.112 3.118 20.354-4.452 20.354-15.034v-.003c-.001-6.914-4.518-13.017-11.124-15.053z" fill="#73e1ff"/></g></g><g><path d="m161.142 140.739h-49.137v-58.404c0-7.367 5.972-13.338 13.338-13.338h22.46c7.367 0 13.338 5.972 13.338 13.338v58.404z" fill="#ff5ad0"/><path d="m229.227 200.436h-185.306v-8.457c0-35.695 28.936-64.631 64.631-64.631h56.043c35.695 0 64.631 28.936 64.631 64.631v8.457z" fill="#b5b1a4"/><path d="m229.229 191.98v8.456h-94.337c30.273-8.848 53.245-34.819 57.717-66.723 21.668 10.437 36.62 32.604 36.62 58.267z" fill="#8f8b81"/><g><path d="m33.145 214.476h206.858v269.417h-206.858z" fill="#ff5ad0"/><path d="m56.753 246.318c-13.038 0-23.608 10.57-23.608 23.608v122.07c0 13.038 10.57 23.608 23.608 23.608 13.038 0 23.608-10.57 23.608-23.608v-122.07c-.001-13.038-10.57-23.608-23.608-23.608z" fill="#ff97eb"/><path d="m240.005 214.476v269.416h-206.857v-39.767c102.273-10.639 182.009-97.103 182.009-202.194 0-9.314-.625-18.479-1.844-27.454h26.692z" fill="#f91ed0"/><g><path d="m237.56 225.834h-201.972c-13.1 0-23.72-10.62-23.72-23.72 0-13.1 10.62-23.72 23.72-23.72h201.972c13.1 0 23.72 10.62 23.72 23.72 0 13.1-10.62 23.72-23.72 23.72z" fill="#e8e4d8"/><path d="m144.243 178.394h-87.56c-11.182 0-20.246 9.065-20.246 20.246 0 11.182 9.065 20.246 20.246 20.246h87.56c11.182 0 20.246-9.065 20.246-20.246.001-11.182-9.064-20.246-20.246-20.246z" fill="#f1eee0"/><path d="m103.587 178.394h-23.012c-11.182 0-20.246 9.065-20.246 20.246 0 11.182 9.065 20.246 20.246 20.246h23.497c11.427 0 20.643-9.466 20.233-20.985-.39-10.97-9.74-19.507-20.718-19.507z" fill="#f9f8f2"/></g><g><path d="m237.56 512h-201.972c-13.1 0-23.72-10.62-23.72-23.72 0-13.1 10.62-23.72 23.72-23.72h201.972c13.1 0 23.72 10.62 23.72 23.72 0 13.1-10.62 23.72-23.72 23.72z" fill="#e8e4d8"/><path d="m178.462 464.56h-121.322c-11.434 0-20.703 9.269-20.703 20.703 0 11.434 9.269 20.703 20.703 20.703h121.322c11.434 0 20.703-9.269 20.703-20.703 0-11.434-9.269-20.703-20.703-20.703z" fill="#f1eee0"/><path d="m123.523 464.56h-23.531c-11.434 0-20.703 9.269-20.703 20.703 0 11.434 9.269 20.703 20.703 20.703h24.027c11.684 0 21.108-9.68 20.689-21.458-.398-11.219-9.959-19.948-21.185-19.948z" fill="#f9f8f2"/></g></g><ellipse cx="145.206" cy="92.404" fill="#ce00bb" rx="8.63" ry="11.183"/></g><g><g><g><g><g><path d="m180.945 311.208c3.021-1.99 3.021-6.409 0-8.399-7.796-5.136-15.197-11.111-22.069-17.931s-12.893-14.164-18.069-21.901c-2.005-2.998-6.458-2.998-8.463 0-5.175 7.737-11.196 15.081-18.069 21.901-6.872 6.82-14.272 12.795-22.069 17.931-3.021 1.99-3.021 6.409 0 8.399 7.796 5.136 15.197 11.111 22.069 17.931s12.893 14.164 18.069 21.901c2.005 2.998 6.458 2.998 8.463 0 5.175-7.737 11.196-15.081 18.069-21.901s14.273-12.796 22.069-17.931z" fill="#73e1ff"/></g></g><g><g><path d="m180.947 311.204c-7.795 5.136-15.194 11.109-22.069 17.932s-12.894 14.166-18.07 21.901c-2.006 2.993-6.453 2.993-8.46 0-5.175-7.736-11.194-15.079-18.07-21.901-.894-.888-1.802-1.763-2.722-2.625 1.214.101 2.441.152 3.68.152 23.59 0 42.823-18.591 43.615-41.812.013.013.013.013.026.025 6.875 6.823 14.274 12.796 22.069 17.932 3.017 1.992 3.017 6.405.001 8.396z" fill="#5cceff"/></g></g></g></g></g><g><g><path d="m451.184 197.408c-3.462 0-6.937-1.121-9.858-3.425-60.283-47.516-125.716-66.176-171.231-73.403-25.574-4.06-47.749-5.056-63.904-4.992-8.414.033-15.331-6.61-15.641-15.018-.004-.105-.008-.21-.012-.315-.322-8.816 6.714-16.148 15.536-16.183 17.316-.07 40.717 1.001 67.81 5.234 49.644 7.756 121.108 28.001 187.095 80.088 7 5.527 7.919 15.826 2.09 22.587-3.097 3.589-7.478 5.427-11.885 5.427z" fill="#ffc751"/></g><g><path d="m254.547 118.421c-19.025-2.27-35.579-2.882-48.362-2.832-8.413.033-15.327-6.611-15.635-15.018l-.012-.315c-.323-8.818 6.712-16.148 15.536-16.183 13.879-.056 31.667.621 52.132 3.071 8.664 1.037 14.865 8.874 13.815 17.537-1.043 8.61-8.861 14.767-17.474 13.74z" fill="#ff993a"/></g><g><path d="m346.515 140.791c23.987 9.047 49.285 21.377 74.201 38.176 7.183 4.843 16.996 2.829 21.681-4.458.057-.088.114-.177.171-.265 4.597-7.134 2.749-16.655-4.288-21.399-27.116-18.282-54.619-31.691-80.695-41.52-8.504-3.206-17.903 1.57-20.43 10.3-.03.103-.059.205-.089.308-2.26 7.784 1.864 15.997 9.449 18.858z" fill="#ffe059"/></g></g><g><g><path d="m432.869 29.896c.641-8.976-6.453-16.641-15.452-16.688-66.72-.347-123.333 16.966-162.179 33.586-24.254 10.376-44.058 21.42-58.563 30.476-6.37 3.977-9.741 11.524-8.126 18.857.484 2.197 1.255 3.29 2.026 4.428 4.71 6.946 14.082 8.945 21.178 4.463 13.662-8.63 33.006-19.564 56.866-29.703 35.678-15.159 87.594-30.937 148.603-30.63 8.207.041 15.037-6.289 15.625-14.474.007-.105.014-.21.022-.315z" fill="#ff5ad0"/></g></g><g><g><path d="m417.417 13.209c-53.18-.277-99.933 10.666-136.39 23.535-8.226 2.904-12.414 12-9.343 20.165.037.098.074.196.111.295 2.978 7.922 11.711 12.052 19.691 9.233 33.585-11.864 76.75-22.007 125.8-21.751 8.181.043 14.975-6.315 15.56-14.475l.023-.314c.641-8.977-6.453-16.642-15.452-16.688z" fill="#ff97eb"/></g></g><g><g><path d="m385.312 14.404c-14.536 1.144-28.47 3.062-41.709 5.531-8.803 1.642-14.399 10.399-12.216 19.084.026.102.051.204.077.306 2.012 8.008 9.882 13.064 17.998 11.55 12.187-2.274 25.011-4.04 38.389-5.092 8.517-.67 14.902-8.085 14.31-16.608l-.022-.314c-.601-8.665-8.17-15.139-16.827-14.457z" fill="#ffc5f7"/></g></g><g><g><g><g><g><path d="m344.779 192.971c1.953-1.286 1.953-4.143 0-5.43-5.04-3.32-9.825-7.184-14.268-11.593s-8.336-9.157-11.682-14.159c-1.296-1.938-4.175-1.938-5.471 0-3.346 5.002-7.239 9.75-11.682 14.159s-9.227 8.272-14.268 11.593c-1.953 1.286-1.953 4.143 0 5.43 5.04 3.32 9.825 7.184 14.268 11.593s8.336 9.157 11.682 14.159c1.296 1.938 4.175 1.938 5.471 0 3.346-5.002 7.239-9.75 11.682-14.159 4.443-4.41 9.227-8.273 14.268-11.593z" fill="#ffe059"/></g></g><g><g><path d="m344.78 192.969c-5.04 3.321-9.823 7.182-14.268 11.593s-8.336 9.158-11.682 14.16c-1.297 1.935-4.172 1.935-5.469 0-3.346-5.001-7.237-9.749-11.682-14.16-.578-.574-1.165-1.14-1.76-1.697.785.066 1.578.098 2.379.098 15.251 0 27.686-12.02 28.198-27.032.008.008.008.008.017.016 4.445 4.411 9.228 8.273 14.268 11.593 1.949 1.288 1.949 4.141-.001 5.429z" fill="#ffc751"/></g></g></g></g></g><g><g><g><g><g><path d="m406.925 218.423c1.698-1.119 1.698-3.603 0-4.721-4.383-2.887-8.543-6.246-12.406-10.08s-7.248-7.962-10.157-12.311c-1.127-1.685-3.63-1.685-4.757 0-2.909 4.349-6.294 8.478-10.157 12.311s-8.023 7.193-12.406 10.08c-1.698 1.119-1.698 3.603 0 4.721 4.383 2.887 8.543 6.246 12.406 10.08s7.248 7.962 10.157 12.311c1.127 1.685 3.63 1.685 4.757 0 2.909-4.349 6.294-8.478 10.157-12.311s8.024-7.193 12.406-10.08z" fill="#ffe059"/></g></g><g><g><path d="m406.927 218.421c-4.382 2.887-8.541 6.245-12.406 10.08s-7.248 7.963-10.158 12.312c-1.128 1.682-3.628 1.682-4.755 0-2.909-4.349-6.293-8.476-10.158-12.312-.503-.499-1.013-.991-1.53-1.476.682.057 1.372.085 2.069.085 13.261 0 24.072-10.451 24.517-23.504l.014.014c3.865 3.835 8.024 7.193 12.406 10.08 1.696 1.121 1.696 3.602.001 4.721z" fill="#ffc751"/></g></g></g></g></g><g><g><g><g><g><path d="m498.895 52.414c1.65-1.087 1.65-3.501 0-4.588-4.259-2.806-8.302-6.07-12.056-9.796s-7.044-7.738-9.871-11.964c-1.095-1.638-3.528-1.638-4.623 0-2.827 4.227-6.117 8.239-9.871 11.964s-7.797 6.99-12.056 9.796c-1.65 1.087-1.65 3.501 0 4.588 4.259 2.806 8.302 6.07 12.056 9.796s7.044 7.738 9.871 11.964c1.095 1.638 3.528 1.638 4.623 0 2.827-4.227 6.117-8.239 9.871-11.964 3.754-3.726 7.796-6.991 12.056-9.796z" fill="#5cceff"/></g></g><g><g><path d="m498.896 52.412c-4.259 2.806-8.301 6.069-12.057 9.796s-7.044 7.739-9.871 11.965c-1.096 1.635-3.525 1.635-4.622 0-2.827-4.226-6.116-8.238-9.871-11.965-.489-.485-.984-.963-1.487-1.434.663.055 1.333.083 2.011.083 12.887 0 23.394-10.157 23.827-22.842.007.007.007.007.014.014 3.756 3.727 7.798 6.991 12.057 9.796 1.646 1.088 1.646 3.499-.001 4.587z" fill="#27b2ff"/></g></g></g></g></g><g><g><g><g><g><path d="m217.431 27.335c1.636-1.077 1.636-3.47 0-4.548-4.222-2.781-8.229-6.017-11.951-9.71s-6.982-7.67-9.784-11.86c-1.086-1.623-3.497-1.623-4.583 0-2.802 4.19-6.063 8.167-9.784 11.86s-7.729 6.929-11.951 9.71c-1.636 1.078-1.636 3.47 0 4.548 4.222 2.781 8.229 6.017 11.951 9.71s6.982 7.67 9.784 11.86c1.086 1.623 3.497 1.623 4.583 0 2.802-4.19 6.063-8.167 9.784-11.86s7.729-6.929 11.951-9.71z" fill="#ffc5f7"/></g></g><g><g><path d="m217.432 27.333c-4.221 2.781-8.228 6.016-11.951 9.711s-6.982 7.671-9.785 11.86c-1.086 1.621-3.495 1.621-4.581 0-2.803-4.189-6.062-8.165-9.785-11.86-.484-.481-.976-.955-1.474-1.422.657.055 1.322.082 1.993.082 12.775 0 23.189-10.068 23.618-22.642.007.007.007.007.014.014 3.723 3.695 7.73 6.929 11.951 9.711 1.633 1.078 1.633 3.468 0 4.546z" fill="#ff97eb"/></g></g></g></g></g></g></svg>